<mxfile host="app.diagrams.net" modified="2024-08-13T02:29:46.334Z" agent="Mozilla/5.0 (Macintosh; Intel Mac OS X 10_15_7) AppleWebKit/537.36 (KHTML, like Gecko) Chrome/127.0.0.0 Safari/537.36" version="24.7.0" etag="56u92MH9s-St1CaqTP7s" type="github">
  <diagram name="Page-1" id="8roV8xatTKnz_ykaXFLn">
    <mxGraphModel>
      <root>
        <mxCell id="0" />
        <mxCell id="1" parent="0" />
      </root>
    </mxGraphModel>
  </diagram>
</mxfile>
